<svg xmlns="http://www.w3.org/2000/svg" width="15.874" height="27" viewBox="0 0 15.874 27">
  <path id="_01" data-name="01" d="M8.843,26.61a1.582,1.582,0,0,1-.389-1.1V19.44h-.76v6.07a1.553,1.553,0,0,1-.4,1.107,1.224,1.224,0,0,1-1.783,0,1.543,1.543,0,0,1-.4-1.107V19.44H1.7l3.433-11.1H4.764l-2.4,4.924A1.267,1.267,0,0,1,1.2,14.316a1.139,1.139,0,0,1-.93-.516,1.709,1.709,0,0,1-.2-1.415L2.72,6.651A3.065,3.065,0,0,1,5.382,4.325h5.379a3.2,3.2,0,0,1,2.651,2.3l.005.023,2.394,5.765a1.725,1.725,0,0,1-.212,1.421,1.146,1.146,0,0,1-.924.509,1.268,1.268,0,0,1-1.165-1.071v-.012L11.373,8.339h-.421l3.488,11.1H10.975v6.07a1.582,1.582,0,0,1-.389,1.1A1.153,1.153,0,0,1,9.717,27,1.164,1.164,0,0,1,8.843,26.61ZM6.115,2.016a1.957,1.957,0,1,1,3.912,0,1.957,1.957,0,1,1-3.912,0Z" transform="translate(-0.001 -0.002)" fill="#ee7676"/>
</svg>
