<svg xmlns="http://www.w3.org/2000/svg" width="32.013" height="31.397" viewBox="0 0 32.013 31.397">
  <path id="_04" data-name="04" d="M7.5,6.251h1.25v-5H7.5a2.5,2.5,0,1,0,0,5Zm-7.5,10a2.5,2.5,0,0,0,2.5,2.5h1.25v-5H2.5A2.5,2.5,0,0,0,0,16.253Zm13.185-5A7.991,7.991,0,0,0,9.093,12.5,5.971,5.971,0,0,1,5,13.753v5l2.248.624a15.966,15.966,0,0,0,3.138.588,13.591,13.591,0,0,0,3.812-.242C18.476,18.8,20,16.77,20,15,20,12.5,16.715,11.252,13.185,11.252ZM19.2.281A13.577,13.577,0,0,0,15.387.039,15.994,15.994,0,0,0,12.25.626L10,1.25v5A5.972,5.972,0,0,1,14.094,7.5a7.991,7.991,0,0,0,4.092,1.25C21.716,8.752,25,7.5,25,5,25,3.234,23.477,1.2,19.2.281Z" transform="translate(0 16.073) rotate(-40)" fill="#ee7676"/>
</svg>
