<svg xmlns="http://www.w3.org/2000/svg" width="20" height="24" viewBox="0 0 20 24">
  <path id="_06" data-name="06" d="M9.354,2.678c-2.455,0-4.444,2.351-4.444,5.25a5.149,5.149,0,0,0,3.419,5.109L7.593,25.181a1.39,1.39,0,0,0,1.391,1.5h.741a1.39,1.39,0,0,0,1.391-1.5l-.736-12.144A5.149,5.149,0,0,0,13.8,7.928C13.8,5.028,11.808,2.678,9.354,2.678Zm14.938,0-1.235,7.5h-.926l-.617-7.5H20.9l-.617,7.5h-.926l-1.235-7.5H17.5v9.75a.745.745,0,0,0,.741.75h1.929l-.727,12a1.39,1.39,0,0,0,1.391,1.5h.741a1.39,1.39,0,0,0,1.391-1.5l-.727-12h1.929a.745.745,0,0,0,.741-.75V2.678h-.617Z" transform="translate(-4.909 -2.678)" fill="#ee7676"/>
</svg>
