<svg xmlns="http://www.w3.org/2000/svg" width="115" height="30.001" viewBox="0 0 115 30.001">
  <g id="logo" transform="translate(-100 -35)">
    <g id="Group_8" data-name="Group 8" transform="translate(138.339 41.666)">
      <path id="Path_8" data-name="Path 8" d="M176.509,367.926l-5.1-7.018h-1.889v7.018h-2.967V351.7h2.967v6.634h1.9l4.711-6.634h3.156l-5.578,7.863,6.045,8.366Z" transform="translate(-166.552 -351.486)" fill="#111"/>
      <path id="Path_9" data-name="Path 9" d="M196.223,358.855a3.238,3.238,0,0,1,1.706,1.516,6.154,6.154,0,0,1,.561,2.867v7.468h-2.412l-.2-1.256h-.156a3.43,3.43,0,0,1-1.406,1.095,4.744,4.744,0,0,1-1.906.372,4.659,4.659,0,0,1-2.056-.422,3.067,3.067,0,0,1-1.328-1.195,3.478,3.478,0,0,1-.461-1.818,3.15,3.15,0,0,1,1.156-2.612,6.759,6.759,0,0,1,3.656-1.122l2.267-.21v-.478a3,3,0,0,0-.294-1.451,1.637,1.637,0,0,0-.922-.75,5.185,5.185,0,0,0-1.684-.222,11.178,11.178,0,0,0-1.611.128,10.631,10.631,0,0,0-1.667.383v-2.234a11.043,11.043,0,0,1,1.839-.389,14.835,14.835,0,0,1,1.928-.133A8.12,8.12,0,0,1,196.223,358.855Zm-1.661,9.752a2.922,2.922,0,0,0,1.084-.779v-2.578l-1.989.178a3.088,3.088,0,0,0-1.673.549,1.51,1.51,0,0,0-.528,1.228,1.554,1.554,0,0,0,.472,1.222,2.011,2.011,0,0,0,1.384.423A3.312,3.312,0,0,0,194.561,368.607Z" transform="translate(-175.073 -354.267)" fill="#111"/>
      <path id="Path_10" data-name="Path 10" d="M209.158,358.61h2.4l.222,1.578h.156a3.438,3.438,0,0,1,1.406-1.289,4.249,4.249,0,0,1,1.917-.433,6.222,6.222,0,0,1,.967.078v2.645a6.728,6.728,0,0,0-1.134-.077,4.334,4.334,0,0,0-1.706.355,3.064,3.064,0,0,0-1.317,1.011v8.257h-2.912Z" transform="translate(-183.035 -354.294)" fill="#111"/>
      <path id="Path_11" data-name="Path 11" d="M230.132,365.6v2.3a9.4,9.4,0,0,1-2.1.241q-4.312,0-4.312-4.288v-5.6h-2.089v-2.292h2.089l.511-4.266h2.4v4.266h3.389v2.292h-3.389V363.4a3.5,3.5,0,0,0,.228,1.393,1.425,1.425,0,0,0,.695.74,2.865,2.865,0,0,0,1.234.225A7.494,7.494,0,0,0,230.132,365.6Z" transform="translate(-187.865 -351.486)" fill="#111"/>
      <path id="Path_12" data-name="Path 12" d="M250,367.107a6.024,6.024,0,0,1-2.567-2.765,12.437,12.437,0,0,1,0-9.318A6.054,6.054,0,0,1,250,352.26a9.063,9.063,0,0,1,7.9,0,6.064,6.064,0,0,1,2.567,2.764,12.373,12.373,0,0,1-.005,9.307,6.084,6.084,0,0,1-2.573,2.77,9.079,9.079,0,0,1-7.89.006Zm7.2-2.891a7.115,7.115,0,0,0,1.128-4.47,7.366,7.366,0,0,0-1.134-4.58,4.44,4.44,0,0,0-6.484-.027,7.113,7.113,0,0,0-1.128,4.475A7.419,7.419,0,0,0,250.7,364.2a4.453,4.453,0,0,0,6.5.016Z" transform="translate(-197.534 -351.355)" fill="#111"/>
      <path id="Path_13" data-name="Path 13" d="M274.568,358.582h2.411l.2,1.279h.156a4.653,4.653,0,0,1,1.628-1.09,5.335,5.335,0,0,1,2.006-.377,3.976,3.976,0,0,1,2.967,1.106,4.826,4.826,0,0,1,1.089,3.494v7.712h-2.912v-7.546a2.4,2.4,0,0,0-.511-1.728,2,2,0,0,0-1.489-.517,3.628,3.628,0,0,0-1.445.306,2.982,2.982,0,0,0-1.189.916v8.568h-2.912Z" transform="translate(-208.364 -354.267)" fill="#111"/>
    </g>
    <g id="Group_7" data-name="Group 7" transform="translate(100 35)">
      <path id="Path_5" data-name="Path 5" d="M291.061,415.4l-1.555-9.239a3.09,3.09,0,0,0-3.089-2.537h-.049a.479.479,0,0,1,0-.957h.049a4.021,4.021,0,0,1,4.022,3.349l.12.718h12.057a15,15,0,1,0-2.747,16.588,2.358,2.358,0,0,1,2.644-3.825,14.882,14.882,0,0,0,.7-1.75H293.91A2.858,2.858,0,0,1,291.061,415.4Zm4.327,6.237a2.363,2.363,0,1,1-2.364-2.364A2.364,2.364,0,0,1,295.388,421.637Z" transform="translate(-274.002 -398)" fill="#fd8601"/>
      <path id="Path_6" data-name="Path 6" d="M311.434,421.183H300.64l.266,1.533a1.886,1.886,0,0,0,1.892,1.578h9.577c.006,0,.011,0,.017,0a15.034,15.034,0,0,0,.484-3.775A1.919,1.919,0,0,1,311.434,421.183Z" transform="translate(-282.889 -405.506)" fill="#fd8601"/>
      <path id="Path_7" data-name="Path 7" d="M299.519,414.932h12.537c-.074-.323-.157-.642-.253-.957H299.352Z" transform="translate(-282.46 -403.325)" fill="#fd8601"/>
    </g>
  </g>
</svg>
