<svg xmlns="http://www.w3.org/2000/svg" width="160" height="40.005" viewBox="0 0 160 40.005">
  <g id="logo" transform="translate(-292 229)">
    <g id="Group_7" data-name="Group 7" transform="translate(292 -229)">
      <path id="Path_5" data-name="Path 5" d="M296.76,421.2l-2.075-12.32a4.121,4.121,0,0,0-4.12-3.383H290.5a.638.638,0,0,1,0-1.277h.065a5.363,5.363,0,0,1,5.366,4.465l.16.957h16.085a20.009,20.009,0,1,0-3.665,22.119,3.145,3.145,0,0,1,3.527-5.1,19.828,19.828,0,0,0,.94-2.334H300.561A3.812,3.812,0,0,1,296.76,421.2Zm5.773,8.316a3.153,3.153,0,1,1-3.153-3.152A3.153,3.153,0,0,1,302.533,429.519Z" transform="translate(-274.002 -398)" fill="#feb53b"/>
      <path id="Path_6" data-name="Path 6" d="M315.041,421.4h-14.4l.355,2.045a2.516,2.516,0,0,0,2.524,2.105H316.3c.008,0,.014,0,.022,0a20.056,20.056,0,0,0,.645-5.036A2.561,2.561,0,0,1,315.041,421.4Z" transform="translate(-276.959 -400.5)" fill="#feb53b"/>
      <path id="Path_7" data-name="Path 7" d="M299.574,415.252H316.3c-.1-.43-.21-.857-.337-1.277H299.352Z" transform="translate(-276.816 -399.773)" fill="#feb53b"/>
    </g>
    <g id="Group_8" data-name="Group 8" transform="translate(340.917 -220.999)">
      <path id="Path_8" data-name="Path 8" d="M180.89,375.38l-7.345-10.241h-2.72V375.38h-4.272V351.7h4.272v9.681h2.737l6.784-9.681h4.545l-8.032,11.474,8.7,12.208Z" transform="translate(-166.552 -351.393)" fill="#141414"/>
      <path id="Path_9" data-name="Path 9" d="M199.591,359.058a4.661,4.661,0,0,1,2.456,2.183,8.86,8.86,0,0,1,.808,4.128v10.753h-3.472l-.288-1.808h-.224a4.939,4.939,0,0,1-2.024,1.576,6.83,6.83,0,0,1-2.744.536,6.708,6.708,0,0,1-2.96-.607,4.416,4.416,0,0,1-1.912-1.72,5.008,5.008,0,0,1-.664-2.617,4.536,4.536,0,0,1,1.664-3.76,9.732,9.732,0,0,1,5.265-1.616l3.264-.3v-.688a4.313,4.313,0,0,0-.424-2.089,2.357,2.357,0,0,0-1.328-1.08,7.463,7.463,0,0,0-2.424-.32,16.1,16.1,0,0,0-2.32.184,15.32,15.32,0,0,0-2.4.552v-3.216a15.917,15.917,0,0,1,2.648-.56,21.381,21.381,0,0,1,2.776-.191A11.69,11.69,0,0,1,199.591,359.058ZM197.2,373.1a4.208,4.208,0,0,0,1.56-1.121v-3.712l-2.864.256a4.445,4.445,0,0,0-2.408.791,2.174,2.174,0,0,0-.76,1.768,2.238,2.238,0,0,0,.68,1.76,2.9,2.9,0,0,0,1.992.609A4.767,4.767,0,0,0,197.2,373.1Z" transform="translate(-168.996 -352.136)" fill="#141414"/>
      <path id="Path_10" data-name="Path 10" d="M209.158,358.673h3.456l.32,2.272h.224a4.95,4.95,0,0,1,2.024-1.856,6.117,6.117,0,0,1,2.76-.624,8.957,8.957,0,0,1,1.392.112v3.808a9.691,9.691,0,0,0-1.632-.111,6.24,6.24,0,0,0-2.456.511,4.413,4.413,0,0,0-1.9,1.456v11.889h-4.192Z" transform="translate(-171.282 -352.144)" fill="#141414"/>
      <path id="Path_11" data-name="Path 11" d="M233.872,371.987v3.36a13.374,13.374,0,0,1-3.024.352q-6.209,0-6.209-6.257v-8.177h-3.008v-3.344h3.008l.736-6.225h3.456v6.225h4.881v3.344h-4.881v7.5a5.175,5.175,0,0,0,.328,2.032,2.067,2.067,0,0,0,1,1.08,4.077,4.077,0,0,0,1.776.328A10.654,10.654,0,0,0,233.872,371.987Z" transform="translate(-172.666 -351.393)" fill="#141414"/>
      <path id="Path_12" data-name="Path 12" d="M251.525,374.335a8.743,8.743,0,0,1-3.7-4.033,18.363,18.363,0,0,1,0-13.594,8.786,8.786,0,0,1,3.705-4.032,12.9,12.9,0,0,1,11.368,0,8.8,8.8,0,0,1,3.7,4.032,18.27,18.27,0,0,1-.008,13.578,8.83,8.83,0,0,1-3.7,4.04,12.921,12.921,0,0,1-11.361.009Zm10.369-4.217q1.624-2.04,1.624-6.521,0-4.609-1.632-6.681a6.336,6.336,0,0,0-9.337-.04q-1.624,2.032-1.624,6.529,0,4.625,1.616,6.69a6.355,6.355,0,0,0,9.353.023Z" transform="translate(-175.43 -351.355)" fill="#141414"/>
      <path id="Path_13" data-name="Path 13" d="M274.568,358.665h3.472l.288,1.841h.224a6.7,6.7,0,0,1,2.344-1.569,7.681,7.681,0,0,1,2.888-.543,5.725,5.725,0,0,1,4.272,1.592q1.567,1.591,1.568,5.032v11.105h-4.192V365.258a3.463,3.463,0,0,0-.736-2.488,2.886,2.886,0,0,0-2.144-.744,5.225,5.225,0,0,0-2.08.441,4.3,4.3,0,0,0-1.712,1.319v12.337h-4.192Z" transform="translate(-178.543 -352.136)" fill="#141414"/>
    </g>
  </g>
</svg>
