<svg id="logo" xmlns="http://www.w3.org/2000/svg" width="122" height="25" viewBox="0 0 122 25">
  <path id="Path_8" data-name="Path 8" d="M182.483,376l-8.161-10.511H171.3V376h-4.747V351.7H171.3v9.936h3.041l7.538-9.936h5.049L178,363.473,187.675,376Z" transform="translate(-166.552 -351.359)" fill="#ff9727"/>
  <path id="Path_9" data-name="Path 9" d="M200.816,359.132a5.179,5.179,0,0,1,2.729,2.426,9.844,9.844,0,0,1,.9,4.587v11.948h-3.858l-.32-2.009h-.249a5.487,5.487,0,0,1-2.249,1.751,7.588,7.588,0,0,1-3.049.6,7.452,7.452,0,0,1-3.289-.675,4.907,4.907,0,0,1-2.125-1.911,5.565,5.565,0,0,1-.738-2.908,5.04,5.04,0,0,1,1.849-4.178q1.849-1.474,5.85-1.8l3.627-.337v-.765a4.792,4.792,0,0,0-.471-2.321,2.619,2.619,0,0,0-1.476-1.2,8.292,8.292,0,0,0-2.694-.356,17.884,17.884,0,0,0-2.578.2,17.022,17.022,0,0,0-2.667.613v-3.574a17.678,17.678,0,0,1,2.943-.622,23.747,23.747,0,0,1,3.085-.212A12.988,12.988,0,0,1,200.816,359.132Zm-2.658,15.6a4.676,4.676,0,0,0,1.734-1.246v-4.124l-3.183.284a4.939,4.939,0,0,0-2.676.879,2.416,2.416,0,0,0-.844,1.965,2.487,2.487,0,0,0,.756,1.956,3.217,3.217,0,0,0,2.214.677A5.3,5.3,0,0,0,198.158,374.734Z" transform="translate(-167.109 -353.448)" fill="#ff9727"/>
  <path id="Path_10" data-name="Path 10" d="M209.158,358.7H213l.356,2.525h.249a5.5,5.5,0,0,1,2.249-2.062,6.8,6.8,0,0,1,3.067-.693,9.951,9.951,0,0,1,1.547.124v4.232a10.763,10.763,0,0,0-1.814-.123,6.934,6.934,0,0,0-2.729.568,4.9,4.9,0,0,0-2.107,1.618v13.21h-4.658Z" transform="translate(-167.608 -353.449)" fill="#ff9727"/>
  <path id="Path_11" data-name="Path 11" d="M235.232,372.545V376a16.011,16.011,0,0,1-3.36.362q-6.9,0-6.9-6.429v-8.4h-3.343v-3.436h3.343l.818-6.4h3.84v6.4h5.423v3.436h-5.423v7.711a4.96,4.96,0,0,0,.365,2.088,2.2,2.2,0,0,0,1.111,1.11,4.853,4.853,0,0,0,1.974.337A12.758,12.758,0,0,0,235.232,372.545Z" transform="translate(-167.932 -351.359)" fill="#ff9727"/>
  <path id="Path_12" data-name="Path 12" d="M252.08,374.989a9.3,9.3,0,0,1-4.107-4.148,17.585,17.585,0,0,1,0-13.98,9.348,9.348,0,0,1,4.117-4.147,15.368,15.368,0,0,1,12.631,0,9.362,9.362,0,0,1,4.107,4.147,17.5,17.5,0,0,1-.009,13.964,9.393,9.393,0,0,1-4.116,4.155,15.4,15.4,0,0,1-12.624.009Zm11.521-4.337q1.8-2.1,1.8-6.706,0-4.74-1.814-6.871a7.43,7.43,0,0,0-10.374-.041q-1.8,2.09-1.8,6.715,0,4.756,1.8,6.88a7.452,7.452,0,0,0,10.392.024Z" transform="translate(-168.66 -351.355)" fill="#ff9727"/>
  <path id="Path_13" data-name="Path 13" d="M274.568,358.7h3.858l.32,2.046H279A7.443,7.443,0,0,1,281.6,359a8.534,8.534,0,0,1,3.209-.6,6.361,6.361,0,0,1,4.747,1.769q1.741,1.767,1.742,5.591v12.339H286.64V366.021a3.847,3.847,0,0,0-.818-2.765,3.207,3.207,0,0,0-2.382-.827,5.807,5.807,0,0,0-2.311.49,4.773,4.773,0,0,0-1.9,1.466v13.708h-4.658Z" transform="translate(-169.299 -353.448)" fill="#ff9727"/>
</svg>
